<svg width="456" height="357" viewBox="0 0 456 357" fill="none" xmlns="http://www.w3.org/2000/svg">
<path fill-rule="evenodd" clip-rule="evenodd" d="M92.9592 1.0661C130.203 2.64323 153.728 42.4589 163.853 83.4093C172.639 118.941 162.831 156.697 136.894 178.748C109.954 201.653 73.7329 205.12 45.8538 183.73C14.4086 159.605 -6.906 118.125 3.7943 76.6315C15.3523 31.8119 52.0644 -0.665602 92.9592 1.0661Z" fill="#9EB1B7" stroke="#4D7582" stroke-opacity="0.3"/>
<path fill-rule="evenodd" clip-rule="evenodd" d="M193.399 239.012C211.158 239.339 228.571 248.823 234.317 267.864C240.317 287.744 233.751 310.121 218.431 321.961C204.302 332.88 186.359 326.866 172.344 315.759C157.27 303.812 142.712 286.18 148.172 266.278C153.776 245.852 174.521 238.664 193.399 239.012Z" stroke="#9EB1B7"/>
<path fill-rule="evenodd" clip-rule="evenodd" d="M408.629 265.004C429.179 264.743 449.078 278.779 454.232 301.233C458.742 320.876 442.551 336.171 427.523 347.31C415.194 356.448 399.984 359.67 387.607 350.615C372.802 339.783 361.362 321.542 366.075 302.352C371.38 280.744 388.765 265.256 408.629 265.004Z" fill="#9EB1B7" stroke="#658792" stroke-opacity="0.4"/>
</svg>
