<svg width="239" height="65" viewBox="0 0 239 65" fill="none" xmlns="http://www.w3.org/2000/svg">
<path d="M1 14.4189L5.9375 11.4369C10.875 8.45493 20.75 2.49099 30.625 3.73348C40.5 4.89313 50.375 13.2592 60.25 17.4009C70.125 21.6253 80 21.6253 89.875 17.9807C99.75 14.4189 109.625 7.29528 119.5 3.73348C129.375 0.0888412 139.25 0.0888412 149.125 3.73348C159 7.29528 168.875 14.4189 178.75 17.9807C188.625 21.6253 198.5 21.6253 208.375 19.803C218.25 17.9807 228.125 14.4189 233.063 12.6794L238 10.8571" stroke="#658792" stroke-opacity="0.5"/>
<path d="M1 21.4189L5.9375 18.4369C10.875 15.4549 20.75 9.49099 30.625 10.7335C40.5 11.8931 50.375 20.2592 60.25 24.4009C70.125 28.6253 80 28.6253 89.875 24.9807C99.75 21.4189 109.625 14.2953 119.5 10.7335C129.375 7.08884 139.25 7.08884 149.125 10.7335C159 14.2953 168.875 21.4189 178.75 24.9807C188.625 28.6253 198.5 28.6253 208.375 26.803C218.25 24.9807 228.125 21.4189 233.063 19.6794L238 17.8571" stroke="#658792" stroke-opacity="0.5"/>
<path d="M1 28.4189L5.9375 25.4369C10.875 22.4549 20.75 16.491 30.625 17.7335C40.5 18.8931 50.375 27.2592 60.25 31.4009C70.125 35.6253 80 35.6253 89.875 31.9807C99.75 28.4189 109.625 21.2953 119.5 17.7335C129.375 14.0888 139.25 14.0888 149.125 17.7335C159 21.2953 168.875 28.4189 178.75 31.9807C188.625 35.6253 198.5 35.6253 208.375 33.803C218.25 31.9807 228.125 28.4189 233.063 26.6794L238 24.8571" stroke="#658792" stroke-opacity="0.5"/>
<path d="M1 34.4189L5.9375 31.4369C10.875 28.4549 20.75 22.491 30.625 23.7335C40.5 24.8931 50.375 33.2592 60.25 37.4009C70.125 41.6253 80 41.6253 89.875 37.9807C99.75 34.4189 109.625 27.2953 119.5 23.7335C129.375 20.0888 139.25 20.0888 149.125 23.7335C159 27.2953 168.875 34.4189 178.75 37.9807C188.625 41.6253 198.5 41.6253 208.375 39.803C218.25 37.9807 228.125 34.4189 233.063 32.6794L238 30.8571" stroke="#658792" stroke-opacity="0.5"/>
<path d="M1 40.4189L5.9375 37.4369C10.875 34.4549 20.75 28.491 30.625 29.7335C40.5 30.8931 50.375 39.2592 60.25 43.4009C70.125 47.6253 80 47.6253 89.875 43.9807C99.75 40.4189 109.625 33.2953 119.5 29.7335C129.375 26.0888 139.25 26.0888 149.125 29.7335C159 33.2953 168.875 40.4189 178.75 43.9807C188.625 47.6253 198.5 47.6253 208.375 45.803C218.25 43.9807 228.125 40.4189 233.063 38.6794L238 36.8571" stroke="#658792" stroke-opacity="0.5"/>
<path d="M1 46.4189L5.9375 43.4369C10.875 40.4549 20.75 34.491 30.625 35.7335C40.5 36.8931 50.375 45.2592 60.25 49.4009C70.125 53.6253 80 53.6253 89.875 49.9807C99.75 46.4189 109.625 39.2953 119.5 35.7335C129.375 32.0888 139.25 32.0888 149.125 35.7335C159 39.2953 168.875 46.4189 178.75 49.9807C188.625 53.6253 198.5 53.6253 208.375 51.803C218.25 49.9807 228.125 46.4189 233.063 44.6794L238 42.8571" stroke="#658792" stroke-opacity="0.5"/>
<path d="M1 51.4189L5.9375 48.4369C10.875 45.4549 20.75 39.491 30.625 40.7335C40.5 41.8931 50.375 50.2592 60.25 54.4009C70.125 58.6253 80 58.6253 89.875 54.9807C99.75 51.4189 109.625 44.2953 119.5 40.7335C129.375 37.0888 139.25 37.0888 149.125 40.7335C159 44.2953 168.875 51.4189 178.75 54.9807C188.625 58.6253 198.5 58.6253 208.375 56.803C218.25 54.9807 228.125 51.4189 233.063 49.6794L238 47.8571" stroke="#658792" stroke-opacity="0.5"/>
<path d="M1 57.4189L5.9375 54.4369C10.875 51.4549 20.75 45.491 30.625 46.7335C40.5 47.8931 50.375 56.2592 60.25 60.4009C70.125 64.6253 80 64.6253 89.875 60.9807C99.75 57.4189 109.625 50.2953 119.5 46.7335C129.375 43.0888 139.25 43.0888 149.125 46.7335C159 50.2953 168.875 57.4189 178.75 60.9807C188.625 64.6253 198.5 64.6253 208.375 62.803C218.25 60.9807 228.125 57.4189 233.063 55.6794L238 53.8571" stroke="#658792" stroke-opacity="0.5"/>
</svg>
