<svg width="29" height="28" viewBox="0 0 29 28" fill="none" xmlns="http://www.w3.org/2000/svg">
<path d="M21.2402 10.1H22.5052C23.8472 10.1 25.1342 10.6479 26.0832 11.623C27.0321 12.5982 27.5652 13.9209 27.5652 15.3C27.5652 16.6791 27.0321 18.0018 26.0832 18.977C25.1342 19.9521 23.8472 20.5 22.5052 20.5H21.2402M21.2402 10.1H1V21.8C1 23.1791 1.53311 24.5018 2.48205 25.477C3.43099 26.4521 4.71803 27 6.06004 27H16.1801C17.5221 27 18.8092 26.4521 19.7581 25.477C20.7071 24.5018 21.2402 23.1791 21.2402 21.8V10.1ZM6.06004 1V4.9M11.1201 1V4.9M16.1801 1V4.9" stroke="black" stroke-width="2" stroke-linecap="round" stroke-linejoin="round"/>
</svg>
