<svg width="39" height="38" viewBox="0 0 39 38" fill="none" xmlns="http://www.w3.org/2000/svg">
<path d="M36.8541 2.09064C35.4244 0.697255 33.702 0.000433239 31.6878 0.000433239V0H7.31411C5.30006 0 3.57762 0.696995 2.1473 2.09038C0.71725 3.48402 0.00209045 5.1623 0.00209045 7.1247V30.8739C0.00209045 32.8362 0.71725 34.5147 2.1473 35.9077C3.57762 37.3014 5.30015 37.9982 7.3142 37.9982H11.9607C11.6726 35.4591 11.7319 33.3642 12.1383 31.7152L14.6263 21.4736C14.2201 20.6652 14.0168 19.6678 14.0168 18.4805C14.0168 17.1118 14.3765 15.9612 15.0961 15.0296C15.8152 14.0975 16.6912 13.6316 17.7237 13.6316C18.553 13.6316 19.192 13.8995 19.6404 14.4354C20.0887 14.9716 20.3132 15.6437 20.3132 16.4518C20.3132 16.9629 20.2201 17.5774 20.0342 18.2946C19.8476 19.0124 19.5984 19.8534 19.2852 20.8183C18.9721 21.7831 18.7479 22.5455 18.6124 23.1061C18.3756 24.096 18.5701 24.9491 19.1964 25.667C19.8226 26.3839 20.6434 26.7433 21.6593 26.7433C23.4536 26.7433 24.9218 25.7702 26.0648 23.8238C27.2072 21.8781 27.7781 19.5195 27.7781 16.7491C27.7781 14.6218 27.0715 12.8898 25.6575 11.5541C24.2448 10.2182 22.2771 9.55015 19.7549 9.55015C16.9287 9.55015 14.6392 10.4286 12.8871 12.1848C11.1352 13.9413 10.2591 16.0566 10.2591 18.5303C10.2591 19.9815 10.6825 21.2186 11.5288 22.2413C11.8164 22.5544 11.9096 22.9011 11.808 23.2806C11.7232 23.5611 11.5963 24.064 11.4271 24.7893C11.3593 25.0206 11.2367 25.1769 11.0589 25.2597C10.8808 25.3421 10.6821 25.3421 10.4621 25.2597C9.15883 24.7321 8.17244 23.8245 7.50406 22.5381C6.83558 21.2521 6.5013 19.7674 6.5013 18.0856C6.5013 16.9969 6.68334 15.9039 7.04732 14.8076C7.4113 13.7106 7.97413 12.6552 8.73571 11.641C9.49729 10.6265 10.4068 9.72362 11.4649 8.93183C12.5226 8.14056 13.8178 7.50968 15.3495 7.03961C16.881 6.56964 18.5274 6.33456 20.2871 6.33456C22.0818 6.33456 23.7488 6.6361 25.2893 7.23795C26.8294 7.83972 28.1201 8.63948 29.1616 9.63723C30.2023 10.6351 31.0192 11.7812 31.6111 13.076C32.2039 14.3704 32.5 15.7106 32.5 17.0958C32.5 20.8233 31.5311 23.9032 29.5931 26.3356C27.6551 28.7683 25.1542 29.9849 22.0909 29.9849C21.0745 29.9849 20.1231 29.7539 19.2342 29.2922C18.3457 28.8306 17.7237 28.2781 17.3681 27.6347C16.6234 30.5211 16.175 32.2441 16.0226 32.8049C15.6333 34.2563 14.7193 35.9877 13.2806 37.9999H31.6876C33.7015 37.9999 35.4241 37.3031 36.8539 35.9094C38.2842 34.5158 38.9993 32.8374 38.9993 30.875V7.12488C38.9993 5.16265 38.2842 3.48428 36.8541 2.09064Z" fill="white"/>
</svg>
