<svg width="39" height="38" viewBox="0 0 39 38" fill="none" xmlns="http://www.w3.org/2000/svg">
<path d="M33.2871 0H5.71289C2.56306 0 0 2.49734 0 5.56641V32.4336C0 35.5027 2.56306 38 5.71289 38H33.2871C36.4369 38 39 35.5027 39 32.4336V5.56641C39 2.49734 36.4369 0 33.2871 0ZM19.5762 28.9453C13.9058 28.9453 9.29297 24.4507 9.29297 18.9258C9.29297 13.4008 13.9058 8.90625 19.5762 8.90625C25.2465 8.90625 29.8594 13.4008 29.8594 18.9258C29.8594 24.4507 25.2465 28.9453 19.5762 28.9453ZM31.002 11.1328C29.1119 11.1328 27.5742 9.63452 27.5742 7.79297C27.5742 5.95142 29.1119 4.45312 31.002 4.45312C32.892 4.45312 34.4297 5.95142 34.4297 7.79297C34.4297 9.63452 32.892 11.1328 31.002 11.1328Z" fill="white"/>
<path d="M31.002 6.67969C30.3715 6.67969 29.8594 7.17863 29.8594 7.79297C29.8594 8.4073 30.3715 8.90625 31.002 8.90625C31.6325 8.90625 32.1445 8.4073 32.1445 7.79297C32.1445 7.17863 31.6325 6.67969 31.002 6.67969Z" fill="white"/>
<path d="M19.5762 11.1328C15.1665 11.1328 11.5781 14.6292 11.5781 18.9258C11.5781 23.2224 15.1665 26.7188 19.5762 26.7188C23.9858 26.7188 27.5742 23.2224 27.5742 18.9258C27.5742 14.6292 23.9858 11.1328 19.5762 11.1328Z" fill="white"/>
</svg>
