<svg width="39" height="38" viewBox="0 0 39 38" fill="none" xmlns="http://www.w3.org/2000/svg">
<path d="M36.1873 0H2.81271C1.25922 0 0 1.22693 0 2.74059V35.2594C0 36.7731 1.25922 38 2.81271 38H36.1873C37.7408 38 39 36.7731 39 35.2594V2.74059C39 1.22693 37.7408 0 36.1873 0V0ZM28.4035 14.8142C28.4121 15.0012 28.4163 15.189 28.4163 15.3778C28.4163 21.1405 23.9144 27.7856 15.6816 27.7859H15.6819H15.6816C13.1539 27.7859 10.8018 27.064 8.82106 25.827C9.17127 25.8673 9.52773 25.8873 9.88866 25.8873C11.9858 25.8873 13.9156 25.1903 15.4477 24.0205C13.4884 23.9851 11.8364 22.7243 11.2663 20.9914C11.5391 21.0425 11.8197 21.0703 12.1075 21.0703C12.516 21.0703 12.9117 21.0167 13.2878 20.9166C11.2398 20.5171 9.69704 18.7536 9.69704 16.6418C9.69704 16.6221 9.69704 16.6044 9.69763 16.5862C10.3008 16.9129 10.9905 17.1095 11.7248 17.1315C10.523 16.3502 9.73304 15.0145 9.73304 13.5014C9.73304 12.7024 9.95471 11.9539 10.3391 11.3094C12.5463 13.9482 15.8449 15.6836 19.5649 15.866C19.4881 15.5465 19.4485 15.2137 19.4485 14.8716C19.4485 12.4641 21.4531 10.5109 23.9248 10.5109C25.2123 10.5109 26.3751 11.0412 27.1919 11.8889C28.2116 11.6929 29.1691 11.33 30.034 10.8304C29.6993 11.8483 28.9899 12.7024 28.0658 13.2425C28.9712 13.137 29.8341 12.903 30.636 12.5557C30.037 13.4304 29.2774 14.1987 28.4035 14.8142Z" fill="white"/>
</svg>
